<mxfile host="app.diagrams.net" modified="2022-11-18T01:18:20.962Z" agent="5.0 (Windows)" etag="4lkhjortlnVZbO_WsdOR" version="20.5.3" type="github">
  <diagram id="NE_63W8Qklr7WS6SEzDw" name="Page-1">
    <mxGraphModel dx="567" dy="409" grid="1" gridSize="10" guides="1" tooltips="1" connect="1" arrows="1" fold="1" page="1" pageScale="1" pageWidth="3000" pageHeight="2000" math="0" shadow="0">
      <root>
        <mxCell id="0" />
        <mxCell id="1" parent="0" />
        <mxCell id="d8GsTR-f2seLnPXguiqT-1" value="" style="rounded=0;whiteSpace=wrap;html=1;fillColor=none;strokeWidth=2;" vertex="1" parent="1">
          <mxGeometry x="120" y="75" width="190" height="175" as="geometry" />
        </mxCell>
        <mxCell id="d8GsTR-f2seLnPXguiqT-2" value="&lt;div style=&quot;font-size: 15px;&quot;&gt;&lt;font style=&quot;font-size: 15px;&quot;&gt;Pi&lt;/font&gt;&lt;/div&gt;" style="text;html=1;align=center;verticalAlign=middle;resizable=0;points=[];autosize=1;strokeColor=none;fillColor=none;" vertex="1" parent="1">
          <mxGeometry x="195" y="45" width="40" height="30" as="geometry" />
        </mxCell>
        <mxCell id="d8GsTR-f2seLnPXguiqT-3" value="" style="rounded=0;whiteSpace=wrap;html=1;strokeWidth=2;fontSize=15;fillColor=none;" vertex="1" parent="1">
          <mxGeometry x="370" y="50" width="770" height="450" as="geometry" />
        </mxCell>
        <mxCell id="d8GsTR-f2seLnPXguiqT-4" value="&lt;div&gt;AWS&lt;/div&gt;" style="text;html=1;align=center;verticalAlign=middle;resizable=0;points=[];autosize=1;strokeColor=none;fillColor=none;fontSize=15;" vertex="1" parent="1">
          <mxGeometry x="725" y="10" width="60" height="30" as="geometry" />
        </mxCell>
        <mxCell id="d8GsTR-f2seLnPXguiqT-9" value="" style="edgeStyle=orthogonalEdgeStyle;rounded=0;orthogonalLoop=1;jettySize=auto;html=1;fontSize=15;" edge="1" parent="1" source="d8GsTR-f2seLnPXguiqT-5" target="d8GsTR-f2seLnPXguiqT-8">
          <mxGeometry relative="1" as="geometry" />
        </mxCell>
        <mxCell id="d8GsTR-f2seLnPXguiqT-5" value="&lt;font style=&quot;font-size: 15px;&quot;&gt;webcam pics&lt;/font&gt;" style="rounded=1;whiteSpace=wrap;html=1;strokeWidth=2;fontSize=15;fillColor=none;" vertex="1" parent="1">
          <mxGeometry x="185" y="90" width="60" height="40" as="geometry" />
        </mxCell>
        <mxCell id="d8GsTR-f2seLnPXguiqT-8" value="Encode to base 64" style="rounded=1;whiteSpace=wrap;html=1;strokeWidth=2;fontSize=15;fillColor=none;" vertex="1" parent="1">
          <mxGeometry x="155" y="160" width="120" height="60" as="geometry" />
        </mxCell>
        <mxCell id="d8GsTR-f2seLnPXguiqT-24" value="" style="edgeStyle=orthogonalEdgeStyle;rounded=0;orthogonalLoop=1;jettySize=auto;html=1;fontSize=15;" edge="1" parent="1" source="d8GsTR-f2seLnPXguiqT-12" target="d8GsTR-f2seLnPXguiqT-17">
          <mxGeometry relative="1" as="geometry" />
        </mxCell>
        <mxCell id="d8GsTR-f2seLnPXguiqT-26" value="" style="edgeStyle=orthogonalEdgeStyle;rounded=0;orthogonalLoop=1;jettySize=auto;html=1;fontSize=15;entryX=0;entryY=1;entryDx=0;entryDy=0;exitX=0.042;exitY=-0.014;exitDx=0;exitDy=0;exitPerimeter=0;" edge="1" parent="1" source="d8GsTR-f2seLnPXguiqT-12" target="d8GsTR-f2seLnPXguiqT-25">
          <mxGeometry relative="1" as="geometry">
            <Array as="points">
              <mxPoint x="580" y="159" />
            </Array>
          </mxGeometry>
        </mxCell>
        <mxCell id="d8GsTR-f2seLnPXguiqT-29" value="" style="edgeStyle=orthogonalEdgeStyle;rounded=0;orthogonalLoop=1;jettySize=auto;html=1;fontSize=15;" edge="1" parent="1" source="d8GsTR-f2seLnPXguiqT-12" target="d8GsTR-f2seLnPXguiqT-28">
          <mxGeometry relative="1" as="geometry" />
        </mxCell>
        <mxCell id="d8GsTR-f2seLnPXguiqT-12" value="&lt;div&gt;Check for eggs&lt;/div&gt;&lt;div&gt;Lambda&lt;br&gt;&lt;/div&gt;" style="rounded=1;whiteSpace=wrap;html=1;strokeWidth=2;fontSize=15;fillColor=none;" vertex="1" parent="1">
          <mxGeometry x="570" y="160" width="120" height="60" as="geometry" />
        </mxCell>
        <mxCell id="d8GsTR-f2seLnPXguiqT-16" style="edgeStyle=orthogonalEdgeStyle;rounded=0;orthogonalLoop=1;jettySize=auto;html=1;exitX=1;exitY=0.5;exitDx=0;exitDy=0;fontSize=15;entryX=0;entryY=0.5;entryDx=0;entryDy=0;" edge="1" parent="1" source="d8GsTR-f2seLnPXguiqT-8" target="d8GsTR-f2seLnPXguiqT-21">
          <mxGeometry relative="1" as="geometry">
            <mxPoint x="390" y="200" as="targetPoint" />
            <Array as="points">
              <mxPoint x="340" y="190" />
              <mxPoint x="340" y="190" />
            </Array>
          </mxGeometry>
        </mxCell>
        <mxCell id="d8GsTR-f2seLnPXguiqT-17" value="&lt;div&gt;Trash&lt;/div&gt;" style="rounded=0;whiteSpace=wrap;html=1;strokeWidth=2;fontSize=15;fillColor=none;" vertex="1" parent="1">
          <mxGeometry x="810" y="160" width="80" height="60" as="geometry" />
        </mxCell>
        <mxCell id="d8GsTR-f2seLnPXguiqT-19" value="no change" style="text;html=1;align=center;verticalAlign=middle;resizable=0;points=[];autosize=1;strokeColor=none;fillColor=none;fontSize=15;" vertex="1" parent="1">
          <mxGeometry x="690" y="160" width="90" height="30" as="geometry" />
        </mxCell>
        <mxCell id="d8GsTR-f2seLnPXguiqT-20" value="change" style="text;html=1;align=center;verticalAlign=middle;resizable=0;points=[];autosize=1;strokeColor=none;fillColor=none;fontSize=15;" vertex="1" parent="1">
          <mxGeometry x="550" y="230" width="70" height="30" as="geometry" />
        </mxCell>
        <mxCell id="d8GsTR-f2seLnPXguiqT-23" value="" style="edgeStyle=orthogonalEdgeStyle;rounded=0;orthogonalLoop=1;jettySize=auto;html=1;fontSize=15;" edge="1" parent="1" source="d8GsTR-f2seLnPXguiqT-21" target="d8GsTR-f2seLnPXguiqT-12">
          <mxGeometry relative="1" as="geometry" />
        </mxCell>
        <mxCell id="d8GsTR-f2seLnPXguiqT-21" value="Load balancer" style="rounded=1;whiteSpace=wrap;html=1;strokeWidth=2;fontSize=15;fillColor=none;" vertex="1" parent="1">
          <mxGeometry x="450" y="160" width="70" height="60" as="geometry" />
        </mxCell>
        <mxCell id="d8GsTR-f2seLnPXguiqT-27" value="" style="edgeStyle=orthogonalEdgeStyle;rounded=0;orthogonalLoop=1;jettySize=auto;html=1;fontSize=15;entryX=0.75;entryY=0;entryDx=0;entryDy=0;exitX=1;exitY=1;exitDx=0;exitDy=0;" edge="1" parent="1" source="d8GsTR-f2seLnPXguiqT-25" target="d8GsTR-f2seLnPXguiqT-12">
          <mxGeometry relative="1" as="geometry">
            <Array as="points" />
          </mxGeometry>
        </mxCell>
        <mxCell id="d8GsTR-f2seLnPXguiqT-25" value="state: was eggs" style="rounded=0;whiteSpace=wrap;html=1;strokeWidth=2;fontSize=15;fillColor=none;" vertex="1" parent="1">
          <mxGeometry x="580" y="60" width="80" height="60" as="geometry" />
        </mxCell>
        <mxCell id="d8GsTR-f2seLnPXguiqT-28" value="email to customers" style="rounded=1;whiteSpace=wrap;html=1;strokeWidth=2;fontSize=15;fillColor=none;" vertex="1" parent="1">
          <mxGeometry x="570" y="280" width="120" height="60" as="geometry" />
        </mxCell>
      </root>
    </mxGraphModel>
  </diagram>
</mxfile>
